<?xml version="1.0" encoding="UTF-8" standalone="no"?>
<!-- Created with Inkscape (http://www.inkscape.org/) -->

<svg
   xmlns:dc="http://purl.org/dc/elements/1.1/"
   xmlns:cc="http://creativecommons.org/ns#"
   xmlns:rdf="http://www.w3.org/1999/02/22-rdf-syntax-ns#"
   xmlns:svg="http://www.w3.org/2000/svg"
   xmlns="http://www.w3.org/2000/svg"
   xmlns:sodipodi="http://sodipodi.sourceforge.net/DTD/sodipodi-0.dtd"
   xmlns:inkscape="http://www.inkscape.org/namespaces/inkscape"
   id="svg7384"
   height="16"
   width="16"
   version="1.1"
   inkscape:version="0.48.4 r9939"
   sodipodi:docname="ex-symbolic.svg">
  <defs
     id="defs10" />
  <sodipodi:namedview
     pagecolor="#ffffff"
     bordercolor="#666666"
     borderopacity="1"
     objecttolerance="10"
     gridtolerance="10"
     guidetolerance="10"
     inkscape:pageopacity="0"
     inkscape:pageshadow="2"
     inkscape:window-width="1026"
     inkscape:window-height="622"
     id="namedview8"
     showgrid="false"
     inkscape:zoom="14.75"
     inkscape:cx="-1.9125728"
     inkscape:cy="5.1256096"
     inkscape:window-x="100"
     inkscape:window-y="30"
     inkscape:window-maximized="0"
     inkscape:current-layer="svg7384" />
  <metadata
     id="metadata90">
    <rdf:RDF>
      <cc:Work
         rdf:about="">
        <dc:format>image/svg+xml</dc:format>
        <dc:type
           rdf:resource="http://purl.org/dc/dcmitype/StillImage" />
        <dc:title>Gnome Symbolic Icon Theme</dc:title>
      </cc:Work>
    </rdf:RDF>
  </metadata>
  <title
     id="title9167">Gnome Symbolic Icon Theme</title>
  <g
     style="font-size:12px;font-style:normal;font-variant:normal;font-weight:normal;font-stretch:normal;line-height:125%;letter-spacing:0px;word-spacing:0px;fill:#bebebe;fill-opacity:1;stroke:none;font-family:Meera;-inkscape-font-specification:Meera"
     id="text3001">
    <path
       d="m 0.49397252,5.4491261 0.12,0 1.54799998,-0.696 c 0.012,-0.012 0.024,-0.012 0.036,-0.012 0.072,0 0.096,0.1080003 0.096,0.396 l 0,5.8199999 c 0,0.623999 -0.1320006,0.756 -0.78,0.792 l -0.67199998,0.036 0,0.36 c 1.84799818,-0.036 1.84800018,-0.036 1.97999998,-0.036 0.1559999,0 0.4200004,0 0.828,0.012 0.1439999,0.012 0.5640005,0.012 1.056,0.024 l 0,-0.36 -0.624,-0.036 c -0.6599993,-0.036 -0.78,-0.168001 -0.78,-0.792 l 0,-7.1159999 -0.168,-0.06 c -0.7799992,0.4079996 -1.6320011,0.7680004 -2.72399998,1.152 l 0.084,0.516"
       style="font-style:normal;font-weight:normal;-inkscape-font-specification:URW Palladio L Medium"
       id="path3300" />
    <path
       d="m 8.8459725,3.8411261 c -1.8599981,0 -2.808,1.4760029 -2.808,4.38 0,1.4039986 0.2520004,2.6160009 0.672,3.2039999 0.4199996,0.588 1.0920008,0.924 1.836,0.924 1.8119985,0 2.7240005,-1.560003 2.7240005,-4.6319999 0,-2.6279974 -0.780002,-3.876 -2.4240005,-3.876 m -0.216,0.42 c 1.1639989,0 1.6320005,1.1760029 1.6320005,4.056 0,2.5559979 -0.4560016,3.6119999 -1.5600005,3.6119999 -1.1639988,0 -1.656,-1.212003 -1.656,-4.1399999 0,-2.5319975 0.4440012,-3.528 1.584,-3.528"
       style="font-style:normal;font-weight:normal;-inkscape-font-specification:URW Palladio L Medium"
       id="path3302" />
    <path
       d="m 11.752373,6.5447151 c -0.0234,0.2886038 -0.0546,0.4836071 -0.124801,0.7878111 0.148202,0.078001 0.234003,0.1092016 0.335404,0.1092016 0.226203,0 0.507008,-0.187203 0.733211,-0.491407 l 0.663009,-0.8892125 0.078,0.4524064 c 0.0702,0.382205 0.124802,0.5772083 0.234003,0.7176101 0.0936,0.1326017 0.241804,0.210603 0.382206,0.210603 0.234003,0 0.514808,-0.171603 1.115416,-0.6786096 L 15.309223,6.6383165 15.184422,6.4589139 14.950418,6.6227162 c -0.218402,0.1560021 -0.288604,0.1872027 -0.366605,0.1872027 -0.101401,0 -0.195003,-0.062401 -0.249603,-0.1560022 -0.0858,-0.1794024 -0.187203,-0.5304078 -0.249604,-0.8814124 l -0.0858,-0.4992071 0.296404,-0.3978056 c 0.234003,-0.3198042 0.530408,-0.5382076 0.71761,-0.5382076 0.0468,0 0.0858,0.0078 0.163803,0.039001 l 0.0702,0.2184031 0.163802,-0.039001 c 0.0546,-0.4992065 0.0858,-0.6474093 0.179402,-0.8268116 -0.0936,-0.046801 -0.210603,-0.078001 -0.304204,-0.078001 -0.257403,0 -0.553808,0.2184035 -0.858012,0.6474091 l -0.491407,0.6786096 -0.0312,-0.1794026 C 13.827203,4.3372845 13.749201,4.0954805 13.6244,3.9316783 13.491798,3.752276 13.273395,3.6508744 13.023791,3.6508744 c -0.156002,0 -0.273004,0.0312 -0.592808,0.1560022 -0.039,0.070201 -0.039,0.078001 -0.078,0.1560022 -0.163802,0.3120041 -0.273004,0.491407 -0.382206,0.6318089 l 0.179403,0.1014014 c 0.117002,-0.2028027 0.374405,-0.3822054 0.561608,-0.3822054 0.195002,0 0.374405,0.2964047 0.460206,0.7722109 l 0.124802,0.6864097 -0.405606,0.569408 C 12.664986,6.6617165 12.438783,6.817719 12.20478,6.817719 c -0.0702,0 -0.132602,-0.0156 -0.218403,-0.046801 l -0.0468,-0.2418034 -0.187203,0.0156"
       style="font-size:65.00091553%;baseline-shift:super;font-family:URW Palladio L;-inkscape-font-specification:URW Palladio L Bold Italic"
       id="path3304" />
  </g>
</svg>
