<?xml version="1.0" encoding="UTF-8" standalone="no"?>
<!-- Created with Inkscape (http://www.inkscape.org/) -->

<svg
   xmlns:dc="http://purl.org/dc/elements/1.1/"
   xmlns:cc="http://creativecommons.org/ns#"
   xmlns:rdf="http://www.w3.org/1999/02/22-rdf-syntax-ns#"
   xmlns:svg="http://www.w3.org/2000/svg"
   xmlns="http://www.w3.org/2000/svg"
   xmlns:sodipodi="http://sodipodi.sourceforge.net/DTD/sodipodi-0.dtd"
   xmlns:inkscape="http://www.inkscape.org/namespaces/inkscape"
   id="svg7384"
   height="16"
   width="16"
   version="1.1"
   inkscape:version="0.48.4 r9939"
   sodipodi:docname="cos-inv-symbolic.svg">
  <defs
     id="defs10" />
  <sodipodi:namedview
     pagecolor="#ffffff"
     bordercolor="#666666"
     borderopacity="1"
     objecttolerance="10"
     gridtolerance="10"
     guidetolerance="10"
     inkscape:pageopacity="0"
     inkscape:pageshadow="2"
     inkscape:window-width="1026"
     inkscape:window-height="622"
     id="namedview8"
     showgrid="false"
     inkscape:zoom="14.75"
     inkscape:cx="-10.522742"
     inkscape:cy="5.1256096"
     inkscape:window-x="101"
     inkscape:window-y="58"
     inkscape:window-maximized="0"
     inkscape:current-layer="svg7384" />
  <metadata
     id="metadata90">
    <rdf:RDF>
      <cc:Work
         rdf:about="">
        <dc:format>image/svg+xml</dc:format>
        <dc:type
           rdf:resource="http://purl.org/dc/dcmitype/StillImage" />
        <dc:title>Gnome Symbolic Icon Theme</dc:title>
      </cc:Work>
    </rdf:RDF>
  </metadata>
  <title
     id="title9167">Gnome Symbolic Icon Theme</title>
  <g
     transform="matrix(1.0230962,0,0,1.3234218,-0.69255528,-1.9689011)"
     style="font-size:11.29900551px;font-style:normal;font-variant:normal;font-weight:normal;font-stretch:normal;line-height:125%;letter-spacing:0px;word-spacing:0px;fill:#bebebe;fill-opacity:1;stroke:none;font-family:Meera;-inkscape-font-specification:Meera"
     id="text3001">
    <path
       d="M 2.938929,12.066373 C 2.1886021,12.066372 1.614825,11.799713 1.2175961,11.266394 0.85714505,10.791925 0.67692021,10.175851 0.67692103,9.4181682 0.67692021,8.3883144 0.97484291,7.6287955 1.57069,7.139609 1.9568844,6.8343349 2.4166417,6.6816955 2.9499632,6.6816903 c 1.2100779,5.2e-6 1.8794845,0.5829774 2.0082216,1.7489183 l -0.717222,0 C 4.1232606,7.6802883 3.6892497,7.3051263 2.938929,7.3051218 2.3872172,7.3051263 1.9807918,7.538683 1.7196515,8.0057925 1.5210345,8.3772803 1.421727,8.8480717 1.4217285,9.4181682 c -1.5e-6,0.5517112 0.1085012,1.0041128 0.3255085,1.3572048 0.2611402,0.434012 0.6675656,0.651017 1.2192774,0.651017 0.7319305,0 1.1788145,-0.411942 1.3406535,-1.235829 l 0.717222,0 C 4.9618578,10.779052 4.7485304,11.238809 4.3844072,11.569834 4.023953,11.90086 3.5421274,12.066372 2.938929,12.066373"
       style="font-family:Meera;-inkscape-font-specification:Meera"
       id="path3179"
       inkscape:connector-curvature="0" />
    <path
       d="m 7.1539878,12.03327 c -0.7687172,0 -1.3516894,-0.261142 -1.7489184,-0.783427 -0.360451,-0.463435 -0.5406758,-1.096061 -0.540675,-1.8978799 -8e-7,-0.7871019 0.180224,-1.4160498 0.540675,-1.8868457 0.397229,-0.5222798 0.9765231,-0.7834219 1.7378842,-0.7834271 0.7834233,5.2e-6 1.3737516,0.2611473 1.7709867,0.7834271 C 9.267029,7.9359133 9.4435758,8.5777344 9.4435812,9.3905827 9.4435758,10.166655 9.263351,10.791925 8.9029061,11.266394 8.4946368,11.777645 7.9116646,12.03327 7.1539878,12.03327 m 0,-4.7281482 C 6.6096321,7.3051263 6.2032067,7.5258098 5.9347103,7.9671729 5.714025,8.3313045 5.6036832,8.7929008 5.6036848,9.3519631 c -1.6e-6,0.5590673 0.1103402,1.0206639 0.3310255,1.3847899 0.2684964,0.448725 0.6749218,0.673086 1.2192775,0.673086 0.5333153,0 0.9397407,-0.220683 1.2192774,-0.662052 C 8.5976225,10.387339 8.7098032,9.9312598 8.7098079,9.3795485 8.7098032,7.9966013 8.1911971,7.3051263 7.1539878,7.3051218"
       style="font-family:Meera;-inkscape-font-specification:Meera"
       id="path3181"
       inkscape:connector-curvature="0" />
    <path
       d="m 11.335944,12.03327 c -1.320426,0 -1.9971886,-0.540675 -2.0302904,-1.622025 l 0.7503244,0 c 0.11034,0.66573 0.559064,0.998594 1.346171,0.998594 0.31631,0 0.592164,-0.05701 0.827564,-0.17103 0.301597,-0.154478 0.452397,-0.386196 0.452401,-0.695154 -4e-6,-0.378839 -0.285053,-0.6363026 -0.855149,-0.7723929 C 11.102384,9.6020736 10.675729,9.4935709 10.546999,9.4457537 9.9952888,9.2544971 9.6550684,9.0154233 9.5263373,8.7285316 9.4674874,8.5740564 9.438063,8.3883144 9.4380638,8.1713053 9.438063,7.6747712 9.6366781,7.2959312 10.03391,7.0347842 c 0.353092,-0.2353908 0.799976,-0.3530887 1.340653,-0.3530939 1.202722,5.2e-6 1.818797,0.4799918 1.848226,1.4399611 l -0.761358,0 C 12.41729,7.5773026 12.045806,7.3051263 11.346978,7.3051218 c -0.776073,4.5e-6 -1.164108,0.2758589 -1.164107,0.8275638 -1e-6,0.3714877 0.358609,0.643664 1.075833,0.8165297 0.776068,0.1765498 1.250537,0.3071208 1.42341,0.3917136 0.492856,0.2427544 0.739286,0.6215944 0.739291,1.1365211 -5e-6,0.525964 -0.217011,0.926872 -0.651017,1.202726 -0.378844,0.235396 -0.856992,0.353094 -1.434444,0.353094"
       style="font-family:Meera;-inkscape-font-specification:Meera"
       id="path3183"
       inkscape:connector-curvature="0" />
    <path
       d="m 13.041559,5.8678977 0,-0.4518562 1.495429,0 0,0.4518562 -1.495429,0"
       style="font-size:7.34445715px;baseline-shift:super"
       id="path3185"
       inkscape:connector-curvature="0" />
    <path
       d="m 15.813661,7.3812575 0,-3.1558214 -1.0364,0 0,-0.3263406 c 0.432729,-0.050203 0.719622,-0.125512 0.860678,-0.2259281 0.121928,-0.095627 0.245053,-0.3203597 0.369375,-0.6741983 l 0.30841,0 0,4.3822884 -0.502063,0"
       style="font-size:7.34445715px;baseline-shift:super"
       id="path3187"
       inkscape:connector-curvature="0" />
  </g>
</svg>
