<?xml version="1.0" encoding="UTF-8" standalone="no"?>
<!-- Created with Inkscape (http://www.inkscape.org/) -->

<svg
   xmlns:dc="http://purl.org/dc/elements/1.1/"
   xmlns:cc="http://creativecommons.org/ns#"
   xmlns:rdf="http://www.w3.org/1999/02/22-rdf-syntax-ns#"
   xmlns:svg="http://www.w3.org/2000/svg"
   xmlns="http://www.w3.org/2000/svg"
   xmlns:sodipodi="http://sodipodi.sourceforge.net/DTD/sodipodi-0.dtd"
   xmlns:inkscape="http://www.inkscape.org/namespaces/inkscape"
   id="svg7384"
   height="16"
   width="16"
   version="1.1"
   inkscape:version="0.48.4 r9939"
   sodipodi:docname="cos-symbolic.svg">
  <defs
     id="defs10" />
  <sodipodi:namedview
     pagecolor="#ffffff"
     bordercolor="#666666"
     borderopacity="1"
     objecttolerance="10"
     gridtolerance="10"
     guidetolerance="10"
     inkscape:pageopacity="0"
     inkscape:pageshadow="2"
     inkscape:window-width="1026"
     inkscape:window-height="622"
     id="namedview8"
     showgrid="false"
     inkscape:zoom="14.75"
     inkscape:cx="-10.522742"
     inkscape:cy="5.1256096"
     inkscape:window-x="339"
     inkscape:window-y="26"
     inkscape:window-maximized="0"
     inkscape:current-layer="svg7384" />
  <metadata
     id="metadata90">
    <rdf:RDF>
      <cc:Work
         rdf:about="">
        <dc:format>image/svg+xml</dc:format>
        <dc:type
           rdf:resource="http://purl.org/dc/dcmitype/StillImage" />
        <dc:title>Gnome Symbolic Icon Theme</dc:title>
      </cc:Work>
    </rdf:RDF>
  </metadata>
  <title
     id="title9167">Gnome Symbolic Icon Theme</title>
  <g
     transform="matrix(1.0985145,0,0,2.2285436,-1.3333334,-8.786885)"
     style="font-size:11.29900551px;font-style:normal;font-variant:normal;font-weight:normal;font-stretch:normal;line-height:125%;letter-spacing:0px;word-spacing:0px;fill:#bebebe;fill-opacity:1;stroke:none;font-family:Meera;-inkscape-font-specification:Meera"
     id="text3001">
    <path
       d="M 4.3860888,10.225012 C 3.6357619,10.225011 3.0619848,9.9583522 2.6647559,9.4250331 2.3043049,8.9505643 2.12408,8.3344896 2.1240808,7.5768071 2.12408,6.5469534 2.4220027,5.7874344 3.0178498,5.2982479 3.4040442,4.9929739 3.8638015,4.8403345 4.397123,4.8403293 c 1.210078,5.2e-6 1.8794845,0.5829774 2.0082216,1.7489183 l -0.717222,0 C 5.5704204,5.8389272 5.1364095,5.4637653 4.3860888,5.4637607 3.834377,5.4637653 3.4279516,5.697322 3.1668113,6.1644315 2.9681943,6.5359192 2.8688868,7.0067106 2.8688883,7.5768071 c -1.5e-6,0.5517112 0.1085012,1.0041124 0.3255085,1.3572048 0.2611402,0.434012 0.6675656,0.6510174 1.2192774,0.6510169 0.7319305,5e-7 1.1788145,-0.411942 1.3406535,-1.2358287 l 0.7172221,0 C 6.4090176,8.9376911 6.1956902,9.3974483 5.831567,9.7284732 5.4711128,10.059499 4.9892872,10.225011 4.3860888,10.225012"
       style="font-family:Meera;-inkscape-font-specification:Meera"
       id="path3151"
       inkscape:connector-curvature="0" />
    <path
       d="m 8.6011476,10.191909 c -0.7687172,0 -1.3516894,-0.2611422 -1.7489184,-0.7834271 C 6.4917782,8.9450472 6.3115534,8.3124212 6.3115542,7.510602 c -8e-7,-0.7871018 0.180224,-1.4160497 0.540675,-1.8868456 0.397229,-0.5222798 0.9765231,-0.7834219 1.7378842,-0.7834271 0.7834233,5.2e-6 1.3737516,0.2611473 1.7709866,0.7834271 0.353089,0.4707959 0.529636,1.112617 0.529641,1.9254653 -5e-6,0.7760727 -0.18023,1.4013426 -0.540675,1.8758114 C 9.9417966,9.9362838 9.3588245,10.191909 8.6011476,10.191909 m 0,-4.7281483 c -0.5443557,4.6e-6 -0.9507811,0.2206881 -1.2192775,0.6620511 -0.2206853,0.3641317 -0.331027,0.825728 -0.3310255,1.3847902 -1.5e-6,0.5590674 0.1103402,1.0206637 0.3310255,1.3847903 0.2684964,0.4487242 0.6749218,0.6730857 1.2192775,0.6730853 0.5333153,4e-7 0.9397407,-0.220683 1.2192774,-0.6620512 0.224357,-0.3604485 0.336538,-0.8165277 0.336543,-1.3682389 -5e-6,-1.3829473 -0.5186111,-2.0744222 -1.5558204,-2.0744268"
       style="font-family:Meera;-inkscape-font-specification:Meera"
       id="path3153"
       inkscape:connector-curvature="0" />
    <path
       d="m 12.783103,10.191909 c -1.320425,0 -1.997188,-0.5406747 -2.03029,-1.6220252 l 0.750325,0 c 0.11034,0.66573 0.559063,0.9985942 1.346171,0.9985938 0.31631,4e-7 0.592164,-0.057009 0.827563,-0.1710299 C 13.97847,9.2429699 14.12927,9.0112523 14.129274,8.702294 14.12927,8.3234554 13.84422,8.0659913 13.274125,7.9299011 12.549544,7.7607125 12.122889,7.6522098 11.994159,7.6043926 11.442449,7.413136 11.102228,7.1740623 10.973497,6.8871706 c -0.05885,-0.1544753 -0.08827,-0.3402172 -0.08827,-0.5572264 -1e-6,-0.4965341 0.198614,-0.875374 0.595846,-1.136521 0.353092,-0.2353909 0.799976,-0.3530887 1.340653,-0.3530939 1.202722,5.2e-6 1.818797,0.4799917 1.848226,1.4399611 l -0.761359,0 C 13.86445,5.7359416 13.492966,5.4637653 12.794138,5.4637607 c -0.776073,4.6e-6 -1.164108,0.275859 -1.164107,0.8275639 -1e-6,0.3714876 0.358609,0.6436639 1.075833,0.8165297 0.776068,0.1765497 1.250537,0.3071208 1.42341,0.3917136 0.492856,0.2427543 0.739286,0.6215943 0.73929,1.136521 -4e-6,0.5259637 -0.21701,0.9268721 -0.651016,1.2027262 -0.378845,0.2353959 -0.856992,0.3530939 -1.434445,0.3530939"
       style="font-family:Meera;-inkscape-font-specification:Meera"
       id="path3155"
       inkscape:connector-curvature="0" />
  </g>
</svg>
