<?xml version="1.0" encoding="UTF-8" standalone="no"?>
<!-- Created with Inkscape (http://www.inkscape.org/) -->

<svg
   xmlns:dc="http://purl.org/dc/elements/1.1/"
   xmlns:cc="http://creativecommons.org/ns#"
   xmlns:rdf="http://www.w3.org/1999/02/22-rdf-syntax-ns#"
   xmlns:svg="http://www.w3.org/2000/svg"
   xmlns="http://www.w3.org/2000/svg"
   xmlns:sodipodi="http://sodipodi.sourceforge.net/DTD/sodipodi-0.dtd"
   xmlns:inkscape="http://www.inkscape.org/namespaces/inkscape"
   id="svg7384"
   height="16"
   width="16"
   version="1.1"
   inkscape:version="0.48.4 r9939"
   sodipodi:docname="ex-symbolic.svg">
  <defs
     id="defs10" />
  <sodipodi:namedview
     pagecolor="#ffffff"
     bordercolor="#666666"
     borderopacity="1"
     objecttolerance="10"
     gridtolerance="10"
     guidetolerance="10"
     inkscape:pageopacity="0"
     inkscape:pageshadow="2"
     inkscape:window-width="1026"
     inkscape:window-height="622"
     id="namedview8"
     showgrid="false"
     inkscape:zoom="14.75"
     inkscape:cx="-1.9125728"
     inkscape:cy="5.1256096"
     inkscape:window-x="100"
     inkscape:window-y="30"
     inkscape:window-maximized="0"
     inkscape:current-layer="svg7384" />
  <metadata
     id="metadata90">
    <rdf:RDF>
      <cc:Work
         rdf:about="">
        <dc:format>image/svg+xml</dc:format>
        <dc:type
           rdf:resource="http://purl.org/dc/dcmitype/StillImage" />
        <dc:title>Gnome Symbolic Icon Theme</dc:title>
      </cc:Work>
    </rdf:RDF>
  </metadata>
  <title
     id="title9167">Gnome Symbolic Icon Theme</title>
  <g
     style="font-size:12px;font-style:normal;font-variant:normal;font-weight:normal;font-stretch:normal;line-height:125%;letter-spacing:0px;word-spacing:0px;fill:#bebebe;fill-opacity:1;stroke:none;font-family:Meera;-inkscape-font-specification:Meera"
     id="text3001">
    <path
       d="m 7.7458163,10.759126 c -0.8999991,0.575999 -1.4520005,0.804 -1.944,0.804 -0.5519994,0 -0.876,-0.360001 -0.876,-0.984 0,-0.24 0.012,-0.420001 0.06,-0.7680003 1.019999,-0.2279997 1.4640005,-0.3600002 1.968,-0.6 0.8519991,-0.4079996 1.284,-0.9600007 1.284,-1.656 0,-0.6479993 -0.4320007,-1.056 -1.116,-1.056 -0.9479991,0 -2.3760005,0.8280009 -2.844,1.656 -0.3959996,0.6959993 -0.72,1.9560013 -0.72,2.7720003 0,0.875999 0.5520009,1.404 1.452,1.404 0.7199993,0 1.3200012,-0.240001 2.508,-1.02 l 0.18,-0.108 c 0.048,-0.036 0.1080001,-0.072 0.168,-0.108 l -0.12,-0.336 m -2.712,-1.2600003 0.168,-0.696 c 0.2639997,-1.1159988 0.7440006,-1.728 1.332,-1.728 0.3599996,0 0.576,0.2400004 0.576,0.636 0,0.7319993 -0.612001,1.3560003 -1.584,1.644 l -0.492,0.144"
       style="font-style:italic;font-weight:bold;font-family:URW Palladio L;-inkscape-font-specification:URW Palladio L Bold Italic"
       id="path3293" />
    <path
       d="m 8.6045297,6.5627148 c -0.0234,0.2886038 -0.054601,0.4836071 -0.1248018,0.7878111 0.148202,0.078001 0.2340034,0.1092015 0.3354047,0.1092015 0.226203,0 0.5070074,-0.1872029 0.7332104,-0.4914069 l 0.663009,-0.8892125 0.078,0.4524063 c 0.0702,0.382205 0.124802,0.5772083 0.234004,0.7176102 0.0936,0.1326017 0.241803,0.2106029 0.382205,0.2106029 0.234003,0 0.514808,-0.1716029 1.115416,-0.6786095 L 12.16138,6.6563161 12.036578,6.4769136 11.802575,6.6407159 c -0.218403,0.156002 -0.288604,0.1872026 -0.366605,0.1872026 -0.101402,0 -0.195003,-0.062401 -0.249604,-0.1560022 -0.0858,-0.1794023 -0.187203,-0.5304078 -0.249603,-0.8814124 l -0.0858,-0.499207 0.296404,-0.3978056 c 0.234004,-0.3198042 0.530408,-0.5382076 0.717611,-0.5382076 0.0468,0 0.0858,0.0078 0.163802,0.039001 l 0.0702,0.2184031 0.163802,-0.039001 c 0.0546,-0.4992066 0.0858,-0.6474093 0.179403,-0.8268117 -0.0936,-0.046801 -0.210603,-0.078001 -0.304205,-0.078001 -0.257403,0 -0.553808,0.2184035 -0.858012,0.6474091 L 10.78856,4.9948927 10.75736,4.8154902 C 10.679359,4.3552842 10.601358,4.1134801 10.476556,3.949678 10.343954,3.7702756 10.125551,3.668874 9.8759476,3.668874 c -0.1560021,0 -0.2730042,0.031201 -0.5928084,0.1560022 -0.039001,0.070201 -0.039001,0.078001 -0.078001,0.1560022 C 9.041336,4.2928825 8.9321342,4.4722855 8.8229328,4.6126873 L 9.0023353,4.7140887 C 9.1193368,4.5112861 9.3767407,4.3318834 9.5639432,4.3318834 c 0.1950025,0 0.3744054,0.2964046 0.4602068,0.7722108 l 0.124801,0.6864097 -0.4056053,0.569408 C 9.5171428,6.6797161 9.2909391,6.8357186 9.0569361,6.8357186 c -0.070201,0 -0.132602,-0.0156 -0.2184031,-0.046801 l -0.046801,-0.2418034 -0.1872026,0.0156"
       style="font-size:65.00091553%;baseline-shift:super;font-family:URW Palladio L;-inkscape-font-specification:URW Palladio L Bold Italic"
       id="path3295" />
  </g>
</svg>
