<?xml version="1.0" encoding="UTF-8" standalone="no"?>
<!-- Created with Inkscape (http://www.inkscape.org/) -->

<svg
   xmlns:dc="http://purl.org/dc/elements/1.1/"
   xmlns:cc="http://creativecommons.org/ns#"
   xmlns:rdf="http://www.w3.org/1999/02/22-rdf-syntax-ns#"
   xmlns:svg="http://www.w3.org/2000/svg"
   xmlns="http://www.w3.org/2000/svg"
   xmlns:sodipodi="http://sodipodi.sourceforge.net/DTD/sodipodi-0.dtd"
   xmlns:inkscape="http://www.inkscape.org/namespaces/inkscape"
   id="svg7384"
   height="16"
   width="16"
   version="1.1"
   inkscape:version="0.48.4 r9939"
   sodipodi:docname="ln-symbolic.svg">
  <defs
     id="defs10" />
  <sodipodi:namedview
     pagecolor="#ffffff"
     bordercolor="#666666"
     borderopacity="1"
     objecttolerance="10"
     gridtolerance="10"
     guidetolerance="10"
     inkscape:pageopacity="0"
     inkscape:pageshadow="2"
     inkscape:window-width="1026"
     inkscape:window-height="622"
     id="namedview8"
     showgrid="false"
     inkscape:zoom="14.75"
     inkscape:cx="-1.9125728"
     inkscape:cy="5.1256096"
     inkscape:window-x="100"
     inkscape:window-y="30"
     inkscape:window-maximized="0"
     inkscape:current-layer="svg7384" />
  <metadata
     id="metadata90">
    <rdf:RDF>
      <cc:Work
         rdf:about="">
        <dc:format>image/svg+xml</dc:format>
        <dc:type
           rdf:resource="http://purl.org/dc/dcmitype/StillImage" />
        <dc:title>Gnome Symbolic Icon Theme</dc:title>
      </cc:Work>
    </rdf:RDF>
  </metadata>
  <title
     id="title9167">Gnome Symbolic Icon Theme</title>
  <g
     style="font-size:12px;font-style:normal;font-variant:normal;font-weight:normal;font-stretch:normal;line-height:125%;letter-spacing:0px;word-spacing:0px;fill:#bebebe;fill-opacity:1;stroke:none;font-family:Meera;-inkscape-font-specification:Meera"
     id="text3001">
    <path
       d="m 5.1464844,11.75 0,-7.5 0.8671875,0 0,7.5 -0.8671875,0"
       style="font-family:Meera;-inkscape-font-specification:Meera"
       id="path3267" />
    <path
       d="m 10.103516,11.75 0,-3.7617188 C 10.103511,7.6289104 9.9921832,7.3476607 9.7695313,7.1445312 9.5468712,6.9414111 9.2558558,6.8398487 8.8964844,6.8398437 8.3769504,6.8398487 7.9746071,7.0429735 7.6894531,7.4492187 7.4433576,7.8007852 7.3203109,8.2402379 7.3203125,8.7675781 l 0,2.9824219 -0.7558594,0 0,-5.3847656 0.6855469,0 0,1.0839843 C 7.7812479,6.6210989 8.4160129,6.2070368 9.1542969,6.2070312 c 0.499996,5.6e-6 0.9042921,0.1152399 1.2128911,0.3457032 0.324213,0.2578174 0.486322,0.6210983 0.486328,1.0898437 l 0,4.1074219 -0.75,0"
       style="font-family:Meera;-inkscape-font-specification:Meera"
       id="path3269" />
  </g>
</svg>
