<?xml version="1.0" encoding="UTF-8" standalone="no"?>
<!-- Created with Inkscape (http://www.inkscape.org/) -->

<svg
   xmlns:dc="http://purl.org/dc/elements/1.1/"
   xmlns:cc="http://creativecommons.org/ns#"
   xmlns:rdf="http://www.w3.org/1999/02/22-rdf-syntax-ns#"
   xmlns:svg="http://www.w3.org/2000/svg"
   xmlns="http://www.w3.org/2000/svg"
   xmlns:sodipodi="http://sodipodi.sourceforge.net/DTD/sodipodi-0.dtd"
   xmlns:inkscape="http://www.inkscape.org/namespaces/inkscape"
   id="svg7384"
   height="16"
   width="16"
   version="1.1"
   inkscape:version="0.48.4 r9939"
   sodipodi:docname="sin-inv-symbolic.svg">
  <defs
     id="defs10" />
  <sodipodi:namedview
     pagecolor="#ffffff"
     bordercolor="#666666"
     borderopacity="1"
     objecttolerance="10"
     gridtolerance="10"
     guidetolerance="10"
     inkscape:pageopacity="0"
     inkscape:pageshadow="2"
     inkscape:window-width="1026"
     inkscape:window-height="622"
     id="namedview8"
     showgrid="false"
     inkscape:zoom="14.75"
     inkscape:cx="-10.522742"
     inkscape:cy="5.1256096"
     inkscape:window-x="101"
     inkscape:window-y="58"
     inkscape:window-maximized="0"
     inkscape:current-layer="svg7384" />
  <metadata
     id="metadata90">
    <rdf:RDF>
      <cc:Work
         rdf:about="">
        <dc:format>image/svg+xml</dc:format>
        <dc:type
           rdf:resource="http://purl.org/dc/dcmitype/StillImage" />
        <dc:title>Gnome Symbolic Icon Theme</dc:title>
      </cc:Work>
    </rdf:RDF>
  </metadata>
  <title
     id="title9167">Gnome Symbolic Icon Theme</title>
  <g
     style="font-size:12px;font-style:normal;font-variant:normal;font-weight:normal;font-stretch:normal;line-height:125%;letter-spacing:0px;word-spacing:0px;fill:#bebebe;fill-opacity:1;stroke:none;font-family:Meera;-inkscape-font-specification:Meera"
     id="text3001"
     transform="matrix(1.2154611,0,0,1.2506784,-1.7236887,-2.0054268)">
    <path
       d="m 3.5743859,12.797396 c -1.4023453,0 -2.1210946,-0.574219 -2.15625,-1.722657 l 0.796875,0 c 0.1171858,0.707033 0.5937478,1.060548 1.4296875,1.060547 0.3359341,10e-7 0.6289026,-0.06055 0.8789062,-0.18164 C 4.8439129,11.789584 5.004069,11.543491 5.0040734,11.215364 5.004069,10.813023 4.7013349,10.539585 4.0958703,10.395052 3.3263363,10.215367 2.8732118,10.100133 2.7364953,10.049349 2.1505562,9.8462266 1.7892285,9.5923206 1.6525109,9.2876301 1.5900099,9.1235711 1.5587599,8.9263057 1.5587609,8.6958332 1.5587599,8.1684939 1.7696972,7.7661506 2.1915734,7.488802 c 0.374998,-0.2499946 0.8496069,-0.3749945 1.4238281,-0.375 1.2773395,5.5e-6 1.9316357,0.5097706 1.9628906,1.5292968 l -0.8085937,0 C 4.7228193,8.0649784 4.3282884,7.7759162 3.5861046,7.7759113 c -0.8242209,4.9e-6 -1.2363298,0.2929734 -1.2363281,0.8789063 -1.7e-6,0.3945348 0.3808573,0.683597 1.1425781,0.8671875 0.8242151,0.1875029 1.3281208,0.3261747 1.5117188,0.4160156 0.5234326,0.2578153 0.7851511,0.6601583 0.7851562,1.2070313 -5.1e-6,0.558595 -0.2304737,0.984375 -0.6914062,1.277344 -0.4023478,0.25 -0.9101598,0.375 -1.5234375,0.375"
       style="font-family:Meera;-inkscape-font-specification:Meera"
       id="path3192"
       inkscape:connector-curvature="0" />
    <path
       d="m 5.7364953,6.1177082 0,-0.9609375 0.8671875,0 0,0.9609375 -0.8671875,0 m 0.017578,6.5390628 0,-5.355469 0.8496094,0 0,5.355469 -0.8496094,0"
       style="font-family:Meera;-inkscape-font-specification:Meera"
       id="path3194"
       inkscape:connector-curvature="0" />
    <path
       d="m 10.722823,12.656771 0,-3.761719 C 10.722819,8.5356811 10.611491,8.2544314 10.388839,8.051302 10.166179,7.8481818 9.8751636,7.7466194 9.5157921,7.7466145 8.9962582,7.7466194 8.5939149,7.9497442 8.3087609,8.3559895 8.0626654,8.7075559 7.9396186,9.1470086 7.9396203,9.6743488 l 0,2.9824222 -0.7558594,0 0,-5.3847659 0.6855469,0 0,1.0839844 C 8.4005557,7.5278696 9.0353207,7.1138075 9.7736046,7.113802 c 0.4999964,5.5e-6 0.9042924,0.1152398 1.2128904,0.3457031 0.324214,0.2578174 0.486323,0.6210983 0.486328,1.0898437 l 0,4.1074222 -0.75,0"
       style="font-family:Meera;-inkscape-font-specification:Meera"
       id="path3196"
       inkscape:connector-curvature="0" />
    <path
       d="m 11.104569,6.2495213 0,-0.4798896 1.588206,0 0,0.4798896 -1.588206,0"
       style="font-size:65.00091553%;baseline-shift:super"
       id="path3198"
       inkscape:connector-curvature="0" />
    <path
       d="m 14.048653,7.8567705 0,-3.3516097 -1.100699,0 0,-0.3465869 C 13.40753,4.1052566 13.712222,4.0252751 13.86203,3.9186291 13.991522,3.8170692 14.122286,3.5783942 14.25432,3.2026034 l 0.327544,0 0,4.6541671 -0.533211,0"
       style="font-size:65.00091553%;baseline-shift:super"
       id="path3200"
       inkscape:connector-curvature="0" />
  </g>
</svg>
