<?xml version="1.0" encoding="UTF-8" standalone="no"?>
<!-- Created with Inkscape (http://www.inkscape.org/) -->

<svg
   xmlns:dc="http://purl.org/dc/elements/1.1/"
   xmlns:cc="http://creativecommons.org/ns#"
   xmlns:rdf="http://www.w3.org/1999/02/22-rdf-syntax-ns#"
   xmlns:svg="http://www.w3.org/2000/svg"
   xmlns="http://www.w3.org/2000/svg"
   xmlns:sodipodi="http://sodipodi.sourceforge.net/DTD/sodipodi-0.dtd"
   xmlns:inkscape="http://www.inkscape.org/namespaces/inkscape"
   id="svg7384"
   height="16"
   width="16"
   version="1.1"
   inkscape:version="0.48.4 r9939"
   sodipodi:docname="sin.svg">
  <defs
     id="defs10" />
  <sodipodi:namedview
     pagecolor="#ffffff"
     bordercolor="#666666"
     borderopacity="1"
     objecttolerance="10"
     gridtolerance="10"
     guidetolerance="10"
     inkscape:pageopacity="0"
     inkscape:pageshadow="2"
     inkscape:window-width="1026"
     inkscape:window-height="622"
     id="namedview8"
     showgrid="false"
     inkscape:zoom="14.75"
     inkscape:cx="-3.2894426"
     inkscape:cy="5.1256096"
     inkscape:window-x="339"
     inkscape:window-y="26"
     inkscape:window-maximized="0"
     inkscape:current-layer="svg7384" />
  <metadata
     id="metadata90">
    <rdf:RDF>
      <cc:Work
         rdf:about="">
        <dc:format>image/svg+xml</dc:format>
        <dc:type
           rdf:resource="http://purl.org/dc/dcmitype/StillImage" />
        <dc:title>Gnome Symbolic Icon Theme</dc:title>
      </cc:Work>
    </rdf:RDF>
  </metadata>
  <title
     id="title9167">Gnome Symbolic Icon Theme</title>
  <g
     style="font-size:12px;font-style:normal;font-variant:normal;font-weight:normal;font-stretch:normal;line-height:125%;letter-spacing:0px;word-spacing:0px;fill:#bebebe;fill-opacity:1;stroke:none;font-family:Meera;-inkscape-font-specification:Meera"
     id="text3001">
    <path
       d="m 5.1289062,11.820313 c -1.4023453,0 -2.1210945,-0.574218 -2.1562499,-1.722656 l 0.796875,0 c 0.1171857,0.707032 0.5937478,1.060548 1.4296874,1.060547 0.3359342,1e-6 0.6289026,-0.06055 0.8789063,-0.181641 C 6.3984333,10.812502 6.5585894,10.566408 6.5585937,10.238282 6.5585894,9.8359403 6.2558553,9.5625031 5.6503906,9.4179697 4.8808567,9.2382846 4.4277321,9.1230504 4.2910156,9.0722666 3.7050766,8.8691444 3.3437488,8.6152384 3.2070313,8.3105478 3.1445303,8.1464889 3.1132803,7.9492234 3.1132813,7.718751 c -1e-6,-0.5273393 0.2109363,-0.9296827 0.6328125,-1.2070313 0.374998,-0.2499946 0.8496069,-0.3749945 1.4238281,-0.375 1.2773395,5.5e-6 1.9316357,0.5097707 1.9628906,1.5292969 l -0.8085938,0 C 6.2773396,7.0878962 5.8828088,6.798834 5.140625,6.7988291 4.3164041,6.798834 3.9042951,7.0918024 3.9042969,7.6777353 3.9042951,8.0722702 4.2851541,8.3613324 5.046875,8.5449228 5.8710901,8.7324258 6.3749958,8.8710975 6.5585937,8.9609385 7.0820263,9.2187534 7.3437448,9.6210968 7.34375,10.16797 c -5.2e-6,0.558594 -0.2304737,0.984375 -0.6914063,1.277343 -0.4023478,0.25 -0.9101598,0.375 -1.5234375,0.375"
       style="font-family:Meera;-inkscape-font-specification:Meera"
       id="path3011" />
    <path
       d="m 7.2910156,5.140626 0,-0.9609375 0.8671875,0 0,0.9609375 -0.8671875,0 m 0.017578,6.539062 0,-5.3554683 0.8496094,0 0,5.3554683 -0.8496094,0"
       style="font-family:Meera;-inkscape-font-specification:Meera"
       id="path3013" />
    <path
       d="m 12.277344,11.679688 0,-3.7617183 c -5e-6,-0.3593709 -0.111333,-0.6406206 -0.333985,-0.84375 -0.22266,-0.2031202 -0.513675,-0.3046826 -0.873046,-0.3046875 -0.519534,4.9e-6 -0.921878,0.2031297 -1.2070317,0.609375 C 9.6171858,7.7304737 9.494139,8.1699263 9.4941406,8.6972666 l 0,2.9824214 -0.7558593,0 0,-5.3847652 0.6855468,0 0,1.0839844 C 9.955076,6.5507873 10.589841,6.1367252 11.328125,6.1367197 c 0.499996,5.5e-6 0.904293,0.1152398 1.212891,0.3457031 0.324213,0.2578175 0.486323,0.6210984 0.486328,1.0898438 l 0,4.1074214 -0.75,0"
       style="font-family:Meera;-inkscape-font-specification:Meera"
       id="path3015" />
  </g>
</svg>
