<?xml version="1.0" encoding="UTF-8" standalone="no"?>
<!-- Created with Inkscape (http://www.inkscape.org/) -->

<svg
   xmlns:dc="http://purl.org/dc/elements/1.1/"
   xmlns:cc="http://creativecommons.org/ns#"
   xmlns:rdf="http://www.w3.org/1999/02/22-rdf-syntax-ns#"
   xmlns:svg="http://www.w3.org/2000/svg"
   xmlns="http://www.w3.org/2000/svg"
   xmlns:sodipodi="http://sodipodi.sourceforge.net/DTD/sodipodi-0.dtd"
   xmlns:inkscape="http://www.inkscape.org/namespaces/inkscape"
   id="svg7384"
   height="16"
   width="16"
   version="1.1"
   inkscape:version="0.48.4 r9939"
   sodipodi:docname="tan.svg">
  <defs
     id="defs10" />
  <sodipodi:namedview
     pagecolor="#ffffff"
     bordercolor="#666666"
     borderopacity="1"
     objecttolerance="10"
     gridtolerance="10"
     guidetolerance="10"
     inkscape:pageopacity="0"
     inkscape:pageshadow="2"
     inkscape:window-width="1026"
     inkscape:window-height="622"
     id="namedview8"
     showgrid="false"
     inkscape:zoom="14.75"
     inkscape:cx="-2.7035885"
     inkscape:cy="5.1256096"
     inkscape:window-x="339"
     inkscape:window-y="26"
     inkscape:window-maximized="0"
     inkscape:current-layer="svg7384" />
  <metadata
     id="metadata90">
    <rdf:RDF>
      <cc:Work
         rdf:about="">
        <dc:format>image/svg+xml</dc:format>
        <dc:type
           rdf:resource="http://purl.org/dc/dcmitype/StillImage" />
        <dc:title>Gnome Symbolic Icon Theme</dc:title>
      </cc:Work>
    </rdf:RDF>
  </metadata>
  <title
     id="title9167">Gnome Symbolic Icon Theme</title>
  <g
     style="font-size:12px;font-style:normal;font-variant:normal;font-weight:normal;font-stretch:normal;line-height:125%;letter-spacing:0px;word-spacing:0px;fill:#bebebe;fill-opacity:1;stroke:none;font-family:Meera;-inkscape-font-specification:Meera"
     id="text3001">
    <path
       d="m 2.3029015,12.844271 c -0.6796893,-1e-6 -1.0195327,-0.265625 -1.0195312,-0.796875 l 0,-4.2187503 -0.77929692,0 0,-0.5917969 0.77929692,0 0,-1.5117187 0.7617187,0 0,1.5117187 0.9433594,0 0,0.5917969 -0.9433594,0 0,3.8320313 c -2.2e-6,0.367188 0.1874976,0.550782 0.5625,0.550781 0.1523408,10e-7 0.2792938,-0.0059 0.3808594,-0.01758 l 0,0.591797 c -0.2656279,0.03906 -0.4941433,0.05859 -0.6855469,0.05859"
       style="font-family:Meera;-inkscape-font-specification:Meera"
       id="path3091" />
    <path
       d="m 7.7931359,12.785677 c -0.5117236,0 -0.8046921,-0.292969 -0.8789063,-0.878906 -0.6835975,0.585937 -1.3378937,0.878906 -1.9628906,0.878906 -0.5351582,0 -0.9667984,-0.132813 -1.2949219,-0.398438 -0.3281258,-0.265624 -0.4921882,-0.652342 -0.4921875,-1.160156 -7e-7,-0.644529 0.2695303,-1.089841 0.8085938,-1.3359373 0.1757795,-0.078122 0.8007789,-0.2031221 1.875,-0.375 C 6.1095385,9.4731801 6.3009445,9.4341176 6.4220421,9.3989582 6.6603192,9.313024 6.8107096,9.201696 6.873214,9.0649738 6.8927408,8.9985712 6.9025064,8.8462276 6.9025109,8.6079426 6.9025064,8.0220097 6.4591475,7.7290412 5.5724328,7.7290363 4.7482117,7.7290412 4.2892278,8.0513065 4.1954796,8.6958332 l -0.7675781,0 C 3.498213,7.6099007 4.2247747,7.0669325 5.607589,7.066927 c 1.367183,5.5e-6 2.050776,0.468755 2.0507813,1.40625 l 0,3.216797 c -5.3e-6,0.328125 0.1835883,0.492188 0.5507812,0.492187 0.03515,10e-7 0.080072,10e-7 0.1347656,0 l 0,0.509766 c -0.2226619,0.0625 -0.4062555,0.09375 -0.5507812,0.09375 M 6.9025109,9.8032551 c -0.2109418,0.093753 -0.4902384,0.1699245 -0.8378906,0.2285159 -0.2109409,0.03125 -0.5234406,0.08399 -0.9375,0.158203 -0.7695332,0.175783 -1.1542984,0.515627 -1.1542969,1.019531 -1.5e-6,0.625001 0.3906231,0.937501 1.171875,0.9375 0.6601529,10e-7 1.1581993,-0.20703 1.4941406,-0.621094 0.1757769,-0.210936 0.2636674,-0.425779 0.2636719,-0.644531 l 0,-1.0781249"
       style="font-family:Meera;-inkscape-font-specification:Meera"
       id="path3093" />
    <path
       d="m 11.636886,12.609896 0,-3.761719 C 11.636881,8.4888061 11.525553,8.2075564 11.302902,8.004427 11.080241,7.8013068 10.789226,7.6997444 10.429855,7.6997395 9.9103207,7.6997444 9.5079774,7.9028692 9.2228234,8.3091145 8.9767279,8.6606809 8.8536811,9.1001336 8.8536828,9.6274738 l 0,2.9824222 -0.7558594,0 0,-5.3847659 0.6855469,0 0,1.0839844 C 9.3146182,7.4809946 9.9493832,7.0669325 10.687667,7.066927 c 0.499996,5.5e-6 0.904293,0.1152398 1.212891,0.3457031 0.324214,0.2578174 0.486323,0.6210983 0.486328,1.0898437 l 0,4.1074222 -0.75,0"
       style="font-family:Meera;-inkscape-font-specification:Meera"
       id="path3095" />
    <path
       d="m 12.018631,6.2026463 0,-0.4798896 1.588206,0 0,0.4798896 -1.588206,0"
       style="font-size:65.00091553%;baseline-shift:super"
       id="path3097" />
    <path
       d="m 14.962716,7.8098955 0,-3.3516097 -1.100699,0 0,-0.3465869 c 0.459576,-0.053317 0.764267,-0.1332988 0.914075,-0.2399448 0.129493,-0.1015599 0.260256,-0.3402349 0.392291,-0.7160257 l 0.327544,0 0,4.6541671 -0.533211,0"
       style="font-size:65.00091553%;baseline-shift:super"
       id="path3099" />
  </g>
</svg>
